<svg width="20" height="15" viewBox="0 0 20 15" fill="none" xmlns="http://www.w3.org/2000/svg">
<rect width="20" height="14.2857" rx="2" fill="white"/>
<mask id="mask0_594_3162" style="mask-type:luminance" maskUnits="userSpaceOnUse" x="0" y="0" width="20" height="15">
<rect width="20" height="14.2857" rx="2" fill="white"/>
</mask>
<g mask="url(#mask0_594_3162)">
<path d="M20 14.2861H0V13.333H20V14.2861ZM20 12.3809H0V11.4287H20V12.3809ZM20 10.4766H0V9.52344H20V10.4766ZM20 8.57129H0V7.61914H20V8.57129ZM20 6.66699H0V5.71387H20V6.66699ZM20 4.76172H0V3.80957H20V4.76172ZM20 2.85742H0V1.9043H20V2.85742ZM20 0.952148H0V0H20V0.952148Z" fill="#D02F44"/>
<rect width="8.57143" height="6.66667" fill="#46467F"/>
<g filter="url(#filter0_d_594_3162)">
<path d="M1.42896 4.76196C1.69178 4.76216 1.90454 4.97566 1.90454 5.23853C1.90432 5.5012 1.69164 5.71391 1.42896 5.71411C1.1661 5.71411 0.952618 5.50133 0.952393 5.23853C0.952393 4.97553 1.16596 4.76196 1.42896 4.76196ZM3.33325 4.76196C3.59624 4.76196 3.80981 4.97553 3.80981 5.23853C3.80959 5.50133 3.59611 5.71411 3.33325 5.71411C3.07044 5.71406 2.85691 5.5013 2.85669 5.23853C2.85669 4.97556 3.0703 4.76201 3.33325 4.76196ZM5.23853 4.76196C5.50133 4.76219 5.71411 4.97567 5.71411 5.23853C5.71389 5.50119 5.50119 5.71389 5.23853 5.71411C4.97567 5.71411 4.76219 5.50133 4.76196 5.23853C4.76196 4.97553 4.97553 4.76196 5.23853 4.76196ZM7.14282 4.76196C7.40581 4.76196 7.61938 4.97553 7.61938 5.23853C7.61916 5.50133 7.40568 5.71411 7.14282 5.71411C6.87999 5.71409 6.66649 5.50131 6.66626 5.23853C6.66626 4.97555 6.87985 4.76199 7.14282 4.76196ZM2.3811 3.80981C2.64392 3.80989 2.85651 4.0226 2.85669 4.2854C2.85669 4.54835 2.64403 4.76189 2.3811 4.76196C2.11811 4.76196 1.90454 4.54839 1.90454 4.2854C1.90472 4.02256 2.11822 3.80981 2.3811 3.80981ZM4.2854 3.80981C4.54828 3.80981 4.76179 4.02256 4.76196 4.2854C4.76196 4.54839 4.54839 4.76196 4.2854 4.76196C4.02256 4.76179 3.80981 4.54828 3.80981 4.2854C3.80999 4.02267 4.02267 3.80999 4.2854 3.80981ZM6.19067 3.80981C6.45347 3.80992 6.66608 4.02262 6.66626 4.2854C6.66626 4.54833 6.45358 4.76186 6.19067 4.76196C5.92768 4.76196 5.71411 4.54839 5.71411 4.2854C5.71429 4.02256 5.92779 3.80981 6.19067 3.80981ZM1.42896 2.85669C1.69175 2.85689 1.90449 3.07043 1.90454 3.33325C1.90454 3.59612 1.69178 3.80961 1.42896 3.80981C1.16596 3.80981 0.952393 3.59624 0.952393 3.33325C0.952443 3.0703 1.16599 2.85669 1.42896 2.85669ZM3.33325 2.85669C3.59621 2.85669 3.80976 3.0703 3.80981 3.33325C3.80981 3.59624 3.59624 3.80981 3.33325 3.80981C3.0703 3.80976 2.85669 3.59621 2.85669 3.33325C2.85674 3.07033 3.07033 2.85674 3.33325 2.85669ZM5.23853 2.85669C5.50129 2.85692 5.71406 3.07044 5.71411 3.33325C5.71411 3.59611 5.50133 3.80959 5.23853 3.80981C4.97553 3.80981 4.76196 3.59624 4.76196 3.33325C4.76201 3.0703 4.97556 2.85669 5.23853 2.85669ZM7.14282 2.85669C7.40578 2.85669 7.61933 3.0703 7.61938 3.33325C7.61938 3.59624 7.40581 3.80981 7.14282 3.80981C6.87985 3.80979 6.66626 3.59623 6.66626 3.33325C6.66631 3.07032 6.87988 2.85671 7.14282 2.85669ZM2.3811 1.90454C2.64403 1.90462 2.85669 2.11816 2.85669 2.3811C2.85661 2.64399 2.64399 2.85661 2.3811 2.85669C2.11816 2.85669 1.90462 2.64403 1.90454 2.3811C1.90454 2.11811 2.11811 1.90454 2.3811 1.90454ZM4.2854 1.90454C4.54839 1.90454 4.76196 2.11811 4.76196 2.3811C4.76189 2.64403 4.54835 2.85669 4.2854 2.85669C4.0226 2.85651 3.80989 2.64392 3.80981 2.3811C3.80981 2.11822 4.02256 1.90472 4.2854 1.90454ZM6.19067 1.90454C6.45358 1.90464 6.66626 2.11817 6.66626 2.3811C6.66618 2.64397 6.45353 2.85659 6.19067 2.85669C5.92773 2.85669 5.71419 2.64403 5.71411 2.3811C5.71411 2.11811 5.92768 1.90454 6.19067 1.90454ZM1.42896 0.952393C1.69178 0.952594 1.90454 1.16609 1.90454 1.42896C1.90434 1.69165 1.69165 1.90434 1.42896 1.90454C1.16609 1.90454 0.952593 1.69178 0.952393 1.42896C0.952393 1.16596 1.16596 0.952393 1.42896 0.952393ZM3.33325 0.952393C3.59624 0.952393 3.80981 1.16596 3.80981 1.42896C3.80961 1.69178 3.59612 1.90454 3.33325 1.90454C3.07043 1.90449 2.85689 1.69175 2.85669 1.42896C2.85669 1.16599 3.0703 0.952443 3.33325 0.952393ZM5.23853 0.952393C5.50133 0.952618 5.71411 1.1661 5.71411 1.42896C5.71391 1.69164 5.5012 1.90432 5.23853 1.90454C4.97566 1.90454 4.76216 1.69178 4.76196 1.42896C4.76196 1.16596 4.97553 0.952393 5.23853 0.952393ZM7.14282 0.952393C7.40581 0.952393 7.61938 1.16596 7.61938 1.42896C7.61918 1.69178 7.40569 1.90454 7.14282 1.90454C6.87997 1.90452 6.66646 1.69176 6.66626 1.42896C6.66626 1.16598 6.87985 0.952418 7.14282 0.952393Z" fill="url(#paint0_linear_594_3162)"/>
</g>
</g>
<defs>
<filter id="filter0_d_594_3162" x="0.952393" y="0.952393" width="6.66699" height="5.76172" filterUnits="userSpaceOnUse" color-interpolation-filters="sRGB">
<feFlood flood-opacity="0" result="BackgroundImageFix"/>
<feColorMatrix in="SourceAlpha" type="matrix" values="0 0 0 0 0 0 0 0 0 0 0 0 0 0 0 0 0 0 127 0" result="hardAlpha"/>
<feOffset dy="1"/>
<feColorMatrix type="matrix" values="0 0 0 0 0 0 0 0 0 0 0 0 0 0 0 0 0 0 0.06 0"/>
<feBlend mode="normal" in2="BackgroundImageFix" result="effect1_dropShadow_594_3162"/>
<feBlend mode="normal" in="SourceGraphic" in2="effect1_dropShadow_594_3162" result="shape"/>
</filter>
<linearGradient id="paint0_linear_594_3162" x1="0.952393" y1="0.952393" x2="0.952393" y2="5.71411" gradientUnits="userSpaceOnUse">
<stop stop-color="white"/>
<stop offset="1" stop-color="#F0F0F0"/>
</linearGradient>
</defs>
</svg>
